<?xml version="1.0" encoding="UTF-8"?>
<svg xmlns="http://www.w3.org/2000/svg" xmlns:xlink="http://www.w3.org/1999/xlink" width="9px" height="10px" viewBox="0 0 9 10" version="1.1">
<g id="surface1">
<path style=" stroke:none;fill-rule:nonzero;fill:rgb(47.058824%,47.058824%,47.058824%);fill-opacity:1;" d="M 8.8125 5.441406 C 9.0625 5.199219 9.0625 4.800781 8.8125 4.554688 L 5.597656 1.429688 C 5.347656 1.1875 4.9375 1.1875 4.6875 1.429688 C 4.4375 1.675781 4.4375 2.074219 4.6875 2.316406 L 6.804688 4.375 L 0.644531 4.375 C 0.289062 4.375 0 4.65625 0 5 C 0 5.34375 0.289062 5.625 0.644531 5.625 L 6.804688 5.625 L 4.6875 7.683594 C 4.4375 7.925781 4.4375 8.324219 4.6875 8.570312 C 4.941406 8.8125 5.347656 8.8125 5.597656 8.570312 L 8.8125 5.445312 Z M 8.8125 5.441406 "/>
</g>
</svg>
